<?xml version="1.0" encoding="UTF-8" standalone="no"?>
<!-- Created with Inkscape (http://www.inkscape.org/) -->

<svg
   xmlns:dc="http://purl.org/dc/elements/1.1/"
   xmlns:cc="http://creativecommons.org/ns#"
   xmlns:rdf="http://www.w3.org/1999/02/22-rdf-syntax-ns#"
   xmlns:svg="http://www.w3.org/2000/svg"
   xmlns="http://www.w3.org/2000/svg"
   xmlns:sodipodi="http://sodipodi.sourceforge.net/DTD/sodipodi-0.dtd"
   xmlns:inkscape="http://www.inkscape.org/namespaces/inkscape"
   version="1.1"
   id="svg2"
   width="67.14698"
   height="24.00001"
   viewBox="0 0 67.146981 24.00001"
   sodipodi:docname="gulp-1.svg"
   inkscape:version="0.92.3 (2405546, 2018-03-11)">
  <metadata
     id="metadata8">
    <rdf:RDF>
      <cc:Work
         rdf:about="">
        <dc:format>image/svg+xml</dc:format>
        <dc:type
           rdf:resource="http://purl.org/dc/dcmitype/StillImage" />
        <dc:title></dc:title>
      </cc:Work>
    </rdf:RDF>
  </metadata>
  <defs
     id="defs6" />
  <sodipodi:namedview
     pagecolor="#ffffff"
     bordercolor="#666666"
     borderopacity="1"
     objecttolerance="10"
     gridtolerance="10"
     guidetolerance="10"
     inkscape:pageopacity="0"
     inkscape:pageshadow="2"
     inkscape:window-width="2560"
     inkscape:window-height="1399"
     id="namedview4"
     showgrid="false"
     inkscape:zoom="5.4322006"
     inkscape:cx="9.624325"
     inkscape:cy="11.796574"
     inkscape:window-x="0"
     inkscape:window-y="41"
     inkscape:window-maximized="0"
     inkscape:current-layer="svg2"
     inkscape:pagecheckerboard="true"
     fit-margin-top="2"
     fit-margin-left="0"
     fit-margin-right="0"
     fit-margin-bottom="2" />
  <path
     style="fill:#ffffff;fill-opacity:1;stroke-width:0.04433997"
     d="M 8.5149889,21.975131 C 4.6226967,21.708722 1.9559049,19.851146 0.72743913,16.550637 0.28821343,15.370571 0.05740563,14.046081 0.00774673,12.420669 -0.12007807,8.2366163 1.3354548,5.1515453 4.2645133,3.3982679 5.3466803,2.7505045 6.7284973,2.3061045 8.3514222,2.0838903 9.1607391,1.973078 11.276654,1.9717879 12.186829,2.0815569 c 1.119943,0.135061 3.393976,0.6223918 4.222909,0.9049801 l 0.366275,0.1248641 0.0115,2.0580842 c 0.0067,1.1319468 -0.0033,2.0728618 -0.02217,2.0909226 -0.0185,0.018058 -0.353308,-0.094279 -0.743932,-0.2496449 C 13.214956,5.8945412 10.353847,5.6712429 8.5596222,6.428397 6.9224052,7.1192961 5.9132216,8.4611913 5.5536803,10.425378 c -0.094878,0.518292 -0.1348666,2.186981 -0.067333,2.808079 0.28645,2.633098 1.5368504,4.117556 3.7074754,4.401462 0.6336169,0.08288 1.7722663,0.02052 2.5828083,-0.141433 l 0.232783,-0.04652 V 15.920386 14.3938 h -1.33065 -1.3306416 l 0.0115,-2.028552 0.0115,-2.028553 3.7801576,-0.01133 3.780166,-0.01133 -0.01124,5.263569 -0.01126,5.263568 -0.399058,0.128007 c -1.085008,0.348033 -2.567316,0.668411 -3.832733,0.828383 -1.330351,0.168182 -3.1594158,0.246217 -4.1622495,0.177578 z m 18.9026161,0.01809 c -1.919724,-0.11327 -3.404034,-0.540191 -4.579625,-1.317211 -1.709075,-1.129632 -2.639209,-2.740969 -2.966483,-5.13908 -0.0745,-0.545705 -0.08033,-1.053713 -0.08033,-6.9294889 V 2.2668212 h 2.638233 2.638225 l 0.02408,6.2962734 c 0.02642,6.9027534 0.009,6.4595604 0.286384,7.2644194 0.298126,0.864949 0.971133,1.477807 1.866608,1.699773 0.449292,0.111366 1.432517,0.100167 1.886358,-0.02148 0.963976,-0.258393 1.574308,-0.880545 1.834967,-1.870487 0.215417,-0.818148 0.210125,-0.651747 0.229367,-7.216326 l 0.01809,-6.1743393 h 2.61365 2.61365 v 6.225066 c 0,4.0036303 -0.0165,6.3889243 -0.04633,6.6842483 -0.144634,1.434218 -0.578634,2.717645 -1.268601,3.75149 -0.353457,0.52963 -1.1653,1.338569 -1.698117,1.692053 -1.357074,0.900312 -2.934649,1.334778 -5.05685,1.392657 -0.377999,0.01033 -0.806982,0.01168 -0.953308,0.0031 z m 12.280491,-0.29441 c -0.01158,-0.03049 -0.01591,-4.41515 -0.0097,-9.743704 l 0.01133,-9.6882793 2.627142,-0.011433 2.627141,-0.011433 V 9.8707864 17.49761 h 2.992951 2.992942 v 2.128305 2.128318 H 45.32951 c -4.447524,0 -5.614758,-0.01149 -5.631458,-0.05542 z m 13.346334,0 c -0.01159,-0.03049 -0.01591,-4.41515 -0.0097,-9.743704 l 0.01133,-9.6882793 h 3.835408 c 4.085309,0 4.314267,0.00949 5.389942,0.2233367 0.958192,0.190495 1.841459,0.5352841 2.516759,0.9824309 0.424932,0.2813683 1.079058,0.9188858 1.360392,1.3258375 0.437917,0.6334792 0.748483,1.4247074 0.920741,2.3457899 0.114125,0.6102634 0.09998,2.1752252 -0.02591,2.8678073 -0.542091,2.981837 -2.491849,4.724992 -5.794417,5.180416 -0.1951,0.02691 -0.938342,0.0604 -1.651666,0.07442 l -1.296942,0.02551 v 3.230925 3.230926 h -2.61745 c -2.053168,0 -2.621993,-0.01195 -2.638509,-0.05542 z m 6.9187,-10.785888 C 60.926822,10.710589 61.616981,10.016211 61.783723,9.0812106 62.032731,7.6848572 61.502248,6.7786948 60.311547,6.566478 60.097673,6.528361 59.642097,6.503786 59.131755,6.502836 l -0.831366,-0.00159 v 2.2391676 2.2391674 l 0.676183,-7.76e-4 c 0.421541,-4.86e-4 0.793067,-0.02531 0.986558,-0.06593 z"
     id="path829"
     inkscape:connector-curvature="0"
     sodipodi:nodetypes="csssssscccsssssccccccccccccsscccssscccsccssscccscscsccscccccccccscccccsscccssscccsccccsscccccc" />
</svg>
